{
    "asset" : {
        "generator" : "Khronos glTF Blender I/O v1.6.16",
        "version" : "2.0"
    },
    "scene" : 0,
    "scenes" : [
        {
            "name" : "Scene",
            "nodes" : [
                0
            ]
        }
    ],
    "nodes" : [
        {
            "mesh" : 0,
            "name" : "Suzanne.001",
            "rotation" : [
                0.7071068286895752,
                0,
                0,
                0.7071068286895752
            ]
        }
    ],
    "materials" : [
        {
            "doubleSided" : true,
            "name" : "None",
            "pbrMetallicRoughness" : {
                "baseColorTexture" : {
                    "index" : 0
                },
                "metallicFactor" : 0,
                "roughnessFactor" : 0.2546440064907074
            }
        },
        {
            "doubleSided" : true,
            "name" : "Material.003",
            "pbrMetallicRoughness" : {
                "baseColorFactor" : [
                    0,
                    0.012191444635391235,
                    0.8000000715255737,
                    1
                ],
                "metallicFactor" : 0
            }
        },
        {
            "doubleSided" : true,
            "name" : "Material.002",
            "pbrMetallicRoughness" : {
                "baseColorFactor" : [
                    0.004460342228412628,
                    0.8000000715255737,
                    0,
                    1
                ],
                "metallicFactor" : 0,
                "roughnessFactor" : 0.5
            }
        },
        {
            "doubleSided" : true,
            "name" : "Material.001",
            "pbrMetallicRoughness" : {
                "baseColorFactor" : [
                    0,
                    0.8000000715255737,
                    0.002210636856034398,
                    1
                ],
                "metallicFactor" : 0,
                "roughnessFactor" : 0.5
            }
        },
        {
            "doubleSided" : true,
            "name" : "Material.004",
            "pbrMetallicRoughness" : {
                "baseColorFactor" : [
                    0.3037278950214386,
                    0.09303227812051773,
                    0.8000000715255737,
                    1
                ],
                "metallicFactor" : 0,
                "roughnessFactor" : 0.5
            }
        }
    ],
    "meshes" : [
        {
            "name" : "Suzanne.001",
            "primitives" : [
                {
                    "attributes" : {
                        "POSITION" : 0,
                        "NORMAL" : 1,
                        "TANGENT" : 2,
                        "TEXCOORD_0" : 3
                    },
                    "indices" : 4,
                    "material" : 0
                },
                {
                    "attributes" : {
                        "POSITION" : 5,
                        "NORMAL" : 6,
                        "TANGENT" : 7,
                        "TEXCOORD_0" : 8
                    },
                    "indices" : 9,
                    "material" : 1
                },
                {
                    "attributes" : {
                        "POSITION" : 10,
                        "NORMAL" : 11,
                        "TANGENT" : 12,
                        "TEXCOORD_0" : 13
                    },
                    "indices" : 14,
                    "material" : 2
                },
                {
                    "attributes" : {
                        "POSITION" : 15,
                        "NORMAL" : 16,
                        "TANGENT" : 17,
                        "TEXCOORD_0" : 18
                    },
                    "indices" : 19,
                    "material" : 3
                },
                {
                    "attributes" : {
                        "POSITION" : 20,
                        "NORMAL" : 21,
                        "TANGENT" : 22,
                        "TEXCOORD_0" : 23
                    },
                    "indices" : 24,
                    "material" : 4
                }
            ]
        }
    ],
    "textures" : [
        {
            "sampler" : 0,
            "source" : 0
        }
    ],
    "images" : [
        {
            "bufferView" : 5,
            "mimeType" : "image/png",
            "name" : "razor_texture"
        }
    ],
    "accessors" : [
        {
            "bufferView" : 0,
            "componentType" : 5126,
            "count" : 1986,
            "max" : [
                1.3671879768371582,
                0.8515620231628418,
                0.984375
            ],
            "min" : [
                -1.3671879768371582,
                -0.8515620231628418,
                -0.984375
            ],
            "type" : "VEC3"
        },
        {
            "bufferView" : 1,
            "componentType" : 5126,
            "count" : 1986,
            "type" : "VEC3"
        },
        {
            "bufferView" : 2,
            "componentType" : 5126,
            "count" : 1986,
            "type" : "VEC4"
        },
        {
            "bufferView" : 3,
            "componentType" : 5126,
            "count" : 1986,
            "type" : "VEC2"
        },
        {
            "bufferView" : 4,
            "componentType" : 5123,
            "count" : 2904,
            "type" : "SCALAR"
        },
        {
            "bufferView" : 6,
            "componentType" : 5126,
            "count" : 24,
            "max" : [
                0.2796058654785156,
                0.2587864100933075,
                2.227839946746826
            ],
            "min" : [
                -0.2796058654785156,
                -0.30042538046836853,
                0.46259236335754395
            ],
            "type" : "VEC3"
        },
        {
            "bufferView" : 7,
            "componentType" : 5126,
            "count" : 24,
            "type" : "VEC3"
        },
        {
            "bufferView" : 8,
            "componentType" : 5126,
            "count" : 24,
            "type" : "VEC4"
        },
        {
            "bufferView" : 9,
            "componentType" : 5126,
            "count" : 24,
            "type" : "VEC2"
        },
        {
            "bufferView" : 10,
            "componentType" : 5123,
            "count" : 36,
            "type" : "SCALAR"
        },
        {
            "bufferView" : 11,
            "componentType" : 5126,
            "count" : 30,
            "max" : [
                0.7429813146591187,
                0.21814730763435364,
                1.8018395900726318
            ],
            "min" : [
                0.3266471326351166,
                -0.1981869637966156,
                0.48760920763015747
            ],
            "type" : "VEC3"
        },
        {
            "bufferView" : 12,
            "componentType" : 5126,
            "count" : 30,
            "type" : "VEC3"
        },
        {
            "bufferView" : 13,
            "componentType" : 5126,
            "count" : 30,
            "type" : "VEC4"
        },
        {
            "bufferView" : 14,
            "componentType" : 5126,
            "count" : 30,
            "type" : "VEC2"
        },
        {
            "bufferView" : 15,
            "componentType" : 5123,
            "count" : 36,
            "type" : "SCALAR"
        },
        {
            "bufferView" : 16,
            "componentType" : 5126,
            "count" : 30,
            "max" : [
                -0.33749720454216003,
                0.21814730763435364,
                1.8018395900726318
            ],
            "min" : [
                -0.7538313865661621,
                -0.1981869637966156,
                0.48760920763015747
            ],
            "type" : "VEC3"
        },
        {
            "bufferView" : 17,
            "componentType" : 5126,
            "count" : 30,
            "type" : "VEC3"
        },
        {
            "bufferView" : 18,
            "componentType" : 5126,
            "count" : 30,
            "type" : "VEC4"
        },
        {
            "bufferView" : 19,
            "componentType" : 5126,
            "count" : 30,
            "type" : "VEC2"
        },
        {
            "bufferView" : 20,
            "componentType" : 5123,
            "count" : 36,
            "type" : "SCALAR"
        },
        {
            "bufferView" : 21,
            "componentType" : 5126,
            "count" : 64,
            "max" : [
                0.46140486001968384,
                0.2181474268436432,
                3.6290175914764404
            ],
            "min" : [
                -0.4642568826675415,
                -0.19818684458732605,
                2.3147871494293213
            ],
            "type" : "VEC3"
        },
        {
            "bufferView" : 22,
            "componentType" : 5126,
            "count" : 64,
            "type" : "VEC3"
        },
        {
            "bufferView" : 23,
            "componentType" : 5126,
            "count" : 64,
            "type" : "VEC4"
        },
        {
            "bufferView" : 24,
            "componentType" : 5126,
            "count" : 64,
            "type" : "VEC2"
        },
        {
            "bufferView" : 25,
            "componentType" : 5123,
            "count" : 72,
            "type" : "SCALAR"
        }
    ],
    "bufferViews" : [
        {
            "buffer" : 0,
            "byteLength" : 23832,
            "byteOffset" : 0
        },
        {
            "buffer" : 0,
            "byteLength" : 23832,
            "byteOffset" : 23832
        },
        {
            "buffer" : 0,
            "byteLength" : 31776,
            "byteOffset" : 47664
        },
        {
            "buffer" : 0,
            "byteLength" : 15888,
            "byteOffset" : 79440
        },
        {
            "buffer" : 0,
            "byteLength" : 5808,
            "byteOffset" : 95328
        },
        {
            "buffer" : 0,
            "byteLength" : 97386,
            "byteOffset" : 101136
        },
        {
            "buffer" : 0,
            "byteLength" : 288,
            "byteOffset" : 198524
        },
        {
            "buffer" : 0,
            "byteLength" : 288,
            "byteOffset" : 198812
        },
        {
            "buffer" : 0,
            "byteLength" : 384,
            "byteOffset" : 199100
        },
        {
            "buffer" : 0,
            "byteLength" : 192,
            "byteOffset" : 199484
        },
        {
            "buffer" : 0,
            "byteLength" : 72,
            "byteOffset" : 199676
        },
        {
            "buffer" : 0,
            "byteLength" : 360,
            "byteOffset" : 199748
        },
        {
            "buffer" : 0,
            "byteLength" : 360,
            "byteOffset" : 200108
        },
        {
            "buffer" : 0,
            "byteLength" : 480,
            "byteOffset" : 200468
        },
        {
            "buffer" : 0,
            "byteLength" : 240,
            "byteOffset" : 200948
        },
        {
            "buffer" : 0,
            "byteLength" : 72,
            "byteOffset" : 201188
        },
        {
            "buffer" : 0,
            "byteLength" : 360,
            "byteOffset" : 201260
        },
        {
            "buffer" : 0,
            "byteLength" : 360,
            "byteOffset" : 201620
        },
        {
            "buffer" : 0,
            "byteLength" : 480,
            "byteOffset" : 201980
        },
        {
            "buffer" : 0,
            "byteLength" : 240,
            "byteOffset" : 202460
        },
        {
            "buffer" : 0,
            "byteLength" : 72,
            "byteOffset" : 202700
        },
        {
            "buffer" : 0,
            "byteLength" : 768,
            "byteOffset" : 202772
        },
        {
            "buffer" : 0,
            "byteLength" : 768,
            "byteOffset" : 203540
        },
        {
            "buffer" : 0,
            "byteLength" : 1024,
            "byteOffset" : 204308
        },
        {
            "buffer" : 0,
            "byteLength" : 512,
            "byteOffset" : 205332
        },
        {
            "buffer" : 0,
            "byteLength" : 144,
            "byteOffset" : 205844
        }
    ],
    "samplers" : [
        {
            "magFilter" : 9729,
            "minFilter" : 9987
        }
    ],
    "buffers" : [
        {
            "byteLength" : 205988,
            "uri" : "data:application/octet-stream;base64,"
        }
    ]
}
