{
  "accessors": [
    {
      "bufferView": 2,
      "componentType": 5126,
      "count": 65532,
      "max": [
        11.901800155639648,
        15.93220043182373,
        11.637800216674805
      ],
      "min": [
        -0.27854201197624207,
        -16.160200119018555,
        -12.952400207519531
      ],
      "type": "VEC3"
    },
    {
      "bufferView": 2,
      "byteOffset": 786384,
      "componentType": 5126,
      "count": 65532,
      "max": [
        0.99999523162841797,
        0.99998259544372559,
        0.99999737739562988
      ],
      "min": [
        -0.99994325637817383,
        -0.99910777807235718,
        -0.99999600648880005
      ],
      "type": "VEC3"
    },
    {
      "bufferView": 1,
      "componentType": 5126,
      "count": 65532,
      "max": [
        0.9990919828414917,
        0.9956430196762085
      ],
      "min": [
        0.00090763898333534598,
        0.00091034499928355217
      ],
      "type": "VEC2"
    },
    {
      "bufferView": 0,
      "componentType": 5125,
      "count": 374382,
      "max": [
        65531
      ],
      "min": [
        0
      ],
      "type": "SCALAR"
    },
    {
      "bufferView": 2,
      "byteOffset": 1572768,
      "componentType": 5126,
      "count": 65532,
      "max": [
        6.5309200286865234,
        16.027599334716797,
        11.633600234985352
      ],
      "min": [
        -11.901800155639648,
        -16.137800216674805,
        -12.974800109863281
      ],
      "type": "VEC3"
    },
    {
      "bufferView": 2,
      "byteOffset": 2359152,
      "componentType": 5126,
      "count": 65532,
      "max": [
        0.99994325637817383,
        0.99999737739562988,
        0.99999666213989258
      ],
      "min": [
        -0.99999725818634033,
        -0.99996989965438843,
        -0.99996364116668701
      ],
      "type": "VEC3"
    },
    {
      "bufferView": 1,
      "byteOffset": 524256,
      "componentType": 5126,
      "count": 65532,
      "max": [
        0.97839701175689697,
        0.96460902690887451
      ],
      "min": [
        0.00090800999896600842,
        0.00091034499928355217
      ],
      "type": "VEC2"
    },
    {
      "bufferView": 0,
      "byteOffset": 1497528,
      "componentType": 5125,
      "count": 373695,
      "max": [
        65531
      ],
      "min": [
        0
      ],
      "type": "SCALAR"
    },
    {
      "bufferView": 2,
      "byteOffset": 3145536,
      "componentType": 5126,
      "count": 6792,
      "max": [
        0.016513800248503685,
        16.027399063110352,
        11.034099578857422
      ],
      "min": [
        -9.9177703857421875,
        -4.9117598533630371,
        -7.1733999252319336
      ],
      "type": "VEC3"
    },
    {
      "bufferView": 2,
      "byteOffset": 3227040,
      "componentType": 5126,
      "count": 6792,
      "max": [
        0.10870198160409927,
        0.99998962879180908,
        0.95187187194824219
      ],
      "min": [
        -0.96594852209091187,
        -0.8102949857711792,
        -0.99589502811431885
      ],
      "type": "VEC3"
    },
    {
      "bufferView": 1,
      "byteOffset": 1048512,
      "componentType": 5126,
      "count": 6792,
      "max": [
        0.96805602312088013,
        0.97495198249816895
      ],
      "min": [
        0.083673298358917236,
        0.00091059302212670445
      ],
      "type": "VEC2"
    },
    {
      "bufferView": 0,
      "byteOffset": 2992308,
      "componentType": 5125,
      "count": 37695,
      "max": [
        6791
      ],
      "min": [
        0
      ],
      "type": "SCALAR"
    }
  ],
  "asset": {
    "extras": {
      "author": "Sen Hime (https://sketchfab.com/senhime)",
      "license": "CC-BY-4.0 (http://creativecommons.org/licenses/by/4.0/)",
      "source": "https://sketchfab.com/3d-models/zelda-dead-hand-5946db7cca9a42428672090514034dbe",
      "title": "Zelda - Dead Hand"
    },
    "generator": "Sketchfab-8.10.0",
    "version": "2.0"
  },
  "bufferViews": [
    {
      "buffer": 0,
      "byteLength": 3143088,
      "byteOffset": 0,
      "name": "floatBufferViews",
      "target": 34963
    },
    {
      "buffer": 0,
      "byteLength": 1102848,
      "byteOffset": 3143088,
      "byteStride": 8,
      "name": "floatBufferViews",
      "target": 34962
    },
    {
      "buffer": 0,
      "byteLength": 3308544,
      "byteOffset": 4245936,
      "byteStride": 12,
      "name": "floatBufferViews",
      "target": 34962
    }
  ],
  "buffers": [
    {
      "byteLength": 7554480,
      "uri": "scene.bin"
    }
  ],
  "images": [
    {
      "uri": "textures/SculptMaterial_baseColor.png"
    }
  ],
  "materials": [
    {
      "doubleSided": true,
      "emissiveFactor": [
        0,
        0,
        0
      ],
      "emissiveTexture": {
        "index": 0,
        "texCoord": 0
      },
      "name": "SculptMaterial",
      "pbrMetallicRoughness": {
        "baseColorFactor": [
          1,
          1,
          1,
          1
        ],
        "baseColorTexture": {
          "index": 0,
          "texCoord": 0
        },
        "metallicFactor": 0,
        "roughnessFactor": 1
      }
    }
  ],
  "meshes": [
    {
      "primitives": [
        {
          "attributes": {
            "NORMAL": 1,
            "POSITION": 0,
            "TEXCOORD_0": 2
          },
          "indices": 3,
          "material": 0,
          "mode": 4
        }
      ]
    },
    {
      "primitives": [
        {
          "attributes": {
            "NORMAL": 5,
            "POSITION": 4,
            "TEXCOORD_0": 6
          },
          "indices": 7,
          "material": 0,
          "mode": 4
        }
      ]
    },
    {
      "primitives": [
        {
          "attributes": {
            "NORMAL": 9,
            "POSITION": 8,
            "TEXCOORD_0": 10
          },
          "indices": 11,
          "material": 0,
          "mode": 4
        }
      ]
    }
  ],
  "nodes": [
    {
      "children": [
        1
      ],
      "name": "RootNode (gltf orientation matrix)",
      "rotation": [
        -0.70710678118654746,
        -0,
        -0,
        0.70710678118654757
      ]
    },
    {
      "children": [
        2
      ],
      "name": "RootNode (model correction matrix)"
    },
    {
      "children": [
        3,
        4,
        5
      ],
      "name": "Creature.obj.cleaner.materialmerger.gles"
    },
    {
      "mesh": 0,
      "name": ""
    },
    {
      "mesh": 1,
      "name": ""
    },
    {
      "mesh": 2,
      "name": ""
    }
  ],
  "samplers": [
    {
      "magFilter": 9729,
      "minFilter": 9987,
      "wrapS": 10497,
      "wrapT": 10497
    }
  ],
  "scene": 0,
  "scenes": [
    {
      "name": "OSG_Scene",
      "nodes": [
        0
      ]
    }
  ],
  "textures": [
    {
      "sampler": 0,
      "source": 0
    }
  ]
}

